<svg width="659" height="466" fill="none" xmlns="http://www.w3.org/2000/svg"><g filter="url(#a)"><rect x="40.5" y="10.5" width="578" height="385" rx="26" fill="#777"/></g><rect x="42.5" y="12.5" width="574.23" height="381.865" rx="25" fill="url(#b)"/><rect opacity=".1" x="94.531" y="26.803" width="471.463" height="353.756" rx="5" fill="#2A2A2A"/><rect x="61.531" y="29.803" width="536" height="346" rx="8" fill="#E8EAF6"/><mask id="c" style="mask-type:luminance" maskUnits="userSpaceOnUse" x="61" y="29" width="537" height="347"><rect x="61.531" y="29.803" width="536" height="346" rx="8" fill="#fff"/></mask><g mask="url(#c)"><path fill="#5267DF" d="M58 30h547v59H58z"/><circle opacity=".245" cx="100" cy="60" r="16" fill="#fff"/><circle opacity=".104" cx="561" cy="60" r="16" fill="#fff"/><rect opacity=".75" x="131" y="50" width="120" height="6" rx="3" fill="#fff"/><rect opacity=".25" x="131" y="64" width="64" height="6" rx="3" fill="#fff"/><rect x="118.53" y="122.803" width="261" height="316" rx="8" fill="#fff"/><rect x="413.53" y="122.803" width="128" height="316" rx="8" fill="#fff"/><rect opacity=".5" x="197" y="161" width="120" height="6" rx="3" fill="#242A45"/></g><defs><linearGradient id="b" x1="888.042" y1="206.406" x2="548.325" y2="-304.444" gradientUnits="userSpaceOnUse"><stop stop-color="#151515"/><stop offset="1" stop-color="#3D3D3D"/></linearGradient><filter id="a" x=".5" y=".5" width="658" height="465" filterUnits="userSpaceOnUse" color-interpolation-filters="sRGB"><feFlood flood-opacity="0" result="BackgroundImageFix"/><feColorMatrix in="SourceAlpha" values="0 0 0 0 0 0 0 0 0 0 0 0 0 0 0 0 0 0 127 0" result="hardAlpha"/><feOffset dy="30"/><feGaussianBlur stdDeviation="20"/><feColorMatrix values="0 0 0 0 0.182433 0 0 0 0 0.230633 0 0 0 0 0.506058 0 0 0 0.20012 0"/><feBlend in2="BackgroundImageFix" result="effect1_dropShadow_0_373"/><feBlend in="SourceGraphic" in2="effect1_dropShadow_0_373" result="shape"/></filter></defs></svg>